<svg width="22" height="22" viewBox="0 0 22 22" fill="none" xmlns="http://www.w3.org/2000/svg">
<path d="M21.9998 9.91609C21.9998 9.37313 21.5597 8.93302 21.0169 8.93302C20.4739 8.93302 20.0338 9.37313 20.0338 9.91609C20.0338 10.4589 20.4739 10.899 21.0169 10.899C21.5597 10.899 21.9998 10.4589 21.9998 9.91609Z" fill="white"/>
<path d="M14.3147 4.26438L14.9093 9.80838C14.9196 9.91156 14.7925 9.96304 14.7271 9.88054L10.503 4.45688C10.2143 4.10631 9.76747 3.87949 9.28629 3.97574C8.55075 4.07188 8.06957 4.68029 8.16581 5.45018L9.0285 11.3448C9.04225 11.4479 8.91165 11.5029 8.84634 11.4204L4.38503 5.57734C3.48796 4.42597 1.72818 4.32972 0.703927 5.38484C-0.255015 6.34382 -0.224082 7.8836 0.734861 8.84258L10.314 18.2567C10.6989 18.6073 11.2111 18.7688 11.7541 18.6726C12.6202 18.5111 13.1943 17.6484 13.0361 16.7822L12.0015 11.7057C11.9775 11.5957 12.1253 11.5373 12.1871 11.63L15.7927 17.26C16.2395 17.9646 17.0403 18.2842 17.8411 18.0608C18.8964 17.8374 19.5047 16.7788 19.2503 15.7545L17.1778 7.33712C17.1537 7.24087 17.2637 7.17212 17.3393 7.23405L18.9616 8.54701C19.4084 8.89758 20.0168 8.3236 19.6662 7.84235L16.1123 3.51858C15.473 2.74869 14.2219 3.26074 14.3182 4.25415L14.3147 4.26438Z" fill="white"/>
</svg>
